<?xml version="1.0" encoding="UTF-8"?>
<svg version="1.1" xmlns="http://www.w3.org/2000/svg" width="614" height="614">
<path d="M0 0 C202.62 0 405.24 0 614 0 C614 202.62 614 405.24 614 614 C411.38 614 208.76 614 0 614 C0 411.38 0 208.76 0 0 Z " fill="#FEFEFE" transform="translate(0,0)"/>
<path d="M0 0 C54.12 0 108.24 0 164 0 C164 62.7 164 125.4 164 190 C136.94 190 109.88 190 82 190 C82 221.35 82 252.7 82 285 C54.94 285 27.88 285 0 285 C0 190.95 0 96.9 0 0 Z " fill="#1E7FB8" transform="translate(153,110)"/>
<path d="M0 0 C54.12 0 108.24 0 164 0 C164 62.7 164 125.4 164 190 C82.82 190 1.64 190 -82 190 C-82 96 -82 96 -81 95 C-78.47455024 94.904956 -75.97666582 94.8744415 -73.45092773 94.88647461 C-72.64792016 94.88635407 -71.84491259 94.88623354 -71.01757145 94.88610935 C-68.40621782 94.88685851 -65.79493469 94.89448688 -63.18359375 94.90234375 C-61.57621291 94.90381316 -59.9688316 94.90483388 -58.3614502 94.90539551 C-52.38679286 94.91064852 -46.41214574 94.92460959 -40.4375 94.9375 C-27.093125 94.958125 -13.74875 94.97875 0 95 C0 63.65 0 32.3 0 0 Z " fill="#1D7FB8" transform="translate(317,300)"/>
<path d="M0 0 C27.06 0 54.12 0 82 0 C82 31.35 82 62.7 82 95 C55.27 95.33 28.54 95.66 1 96 C0.67 127.02 0.34 158.04 0 190 C81.18 190 162.36 190 246 190 C246 190.33 246 190.66 246 191 C164.49 191 82.98 191 -1 191 C-1 159.65 -1 128.3 -1 96 C-27.73 96 -54.46 96 -82 96 C-82 95.67 -82 95.34 -82 95 C-54.94 95 -27.88 95 0 95 C0 63.65 0 32.3 0 0 Z M1 2 C1 32.03 1 62.06 1 93 C10.16790311 93.65485022 19.10739258 94.14934539 28.265625 94.1328125 C29.46507751 94.13376923 30.66453003 94.13472595 31.90032959 94.13571167 C34.41109266 94.13638629 36.92185756 94.13458269 39.43261719 94.13037109 C43.25459728 94.12499353 47.0764609 94.13035042 50.8984375 94.13671875 C53.35416692 94.13605821 55.80989627 94.13477755 58.265625 94.1328125 C59.39502502 94.13483673 60.52442505 94.13686096 61.68804932 94.13894653 C63.30087799 94.13421829 63.30087799 94.13421829 64.94628906 94.12939453 C65.87669006 94.12859894 66.80709106 94.12780334 67.76568604 94.12698364 C72.18968168 93.95329145 76.59456833 93.44054317 81 93 C81 62.97 81 32.94 81 2 C54.6 2 28.2 2 1 2 Z " fill="#C5E2EE" transform="translate(235,300)"/>
<path d="M0 0 C0.33 0 0.66 0 1 0 C1 62.37 1 124.74 1 189 C55.45 189 109.9 189 166 189 C166.84438255 193.22191275 167.12565752 196.59892612 167.12698364 200.858078 C167.12854363 201.53568674 167.13010362 202.21329548 167.13171089 202.91143781 C167.13569017 205.17559999 167.13254296 207.43969477 167.12939453 209.70385742 C167.1307501 211.33054137 167.13253091 212.95722502 167.13470459 214.58390808 C167.13926511 219.00204271 167.13749377 223.42015399 167.1343255 227.83828902 C167.1317892 232.47701692 167.1341435 237.11574285 167.13571167 241.75447083 C167.13753201 249.55824134 167.13513306 257.3620024 167.13037109 265.16577148 C167.12495351 274.14676211 167.12667335 283.12772995 167.1321975 292.10872 C167.13676222 299.84322273 167.13736211 307.57771866 167.13475883 315.3122223 C167.13321123 319.92040873 167.13295967 324.52858453 167.13629532 329.13677025 C167.13922217 333.48455281 167.13711165 337.83230662 167.13140106 342.18008614 C167.13009784 343.76089811 167.13042506 345.34171257 167.13266373 346.9225235 C167.14685736 357.98059135 166.71062602 368.96486438 166 380 C165.34 380 164.68 380 164 380 C164 317.3 164 254.6 164 190 C109.88 190 55.76 190 0 190 C0 127.3 0 64.6 0 0 Z " fill="#D2EDF8" transform="translate(317,110)"/>
<path d="M0 0 C54.12 0 108.24 0 164 0 C164 62.7 164 125.4 164 190 C82.82 190 1.64 190 -82 190 C-82 187.03 -82 184.06 -82 181 C-81.67 181 -81.34 181 -81 181 C-81 183.64 -81 186.28 -81 189 C-0.48 189 80.04 189 163 189 C163 127.29 163 65.58 163 2 C82.81 2.495 82.81 2.495 1 3 C0.505 1.515 0.505 1.515 0 0 Z " fill="#2675A2" transform="translate(317,300)"/>
<path d="M0 0 C0.33 0 0.66 0 1 0 C1 94.05 1 188.1 1 285 C0.34 285 -0.32 285 -1 285 C-1.33 191.61 -1.66 98.22 -2 2 C-1.34 2 -0.68 2 0 2 C0 1.34 0 0.68 0 0 Z " fill="#CCE7F1" transform="translate(152,110)"/>
<path d="M0 0 C0 0.66 0 1.32 0 2 C-54.12 2 -108.24 2 -164 2 C-164 1.34 -164 0.68 -164 0 C-144.83192218 -0.15443489 -125.66380482 -0.30244952 -106.49561977 -0.4429636 C-97.59414032 -0.50836398 -88.69268542 -0.57581127 -79.79125977 -0.64819336 C-72.02661372 -0.71132638 -64.26194896 -0.7705006 -56.49723774 -0.82505554 C-52.39151063 -0.85403711 -48.28581864 -0.88490954 -44.18014336 -0.92053413 C-40.30359666 -0.95410775 -36.42704537 -0.98232675 -32.5504303 -1.00670624 C-31.13927829 -1.01647606 -29.72813739 -1.02808432 -28.31701851 -1.04183006 C-18.81991678 -1.13289263 -9.46190152 -0.75261597 0 0 Z " fill="#CCE7F1" transform="translate(317,108)"/>
<path d="M0 0 C54.12 0 108.24 0 164 0 C163.67 0.66 163.34 1.32 163 2 C82.81 2.495 82.81 2.495 1 3 C0.67 2.01 0.34 1.02 0 0 Z " fill="#377FA8" transform="translate(317,300)"/>
</svg>
